<svg version="1.1" xmlns="http://www.w3.org/2000/svg" xmlns:xlink="http://www.w3.org/1999/xlink" width="48" height="48"><defs><linearGradient x1="10.46951" y1="11.50985" x2="46.36934" y2="45.32898" gradientUnits="userSpaceOnUse" id="color-1"><stop offset="0" stop-color="#000000" stop-opacity="0.26"></stop><stop offset="1" stop-color="#000000" stop-opacity="0"></stop></linearGradient><filter id="dropshadow-base"><feColorMatrix type="matrix" values="0 0 0 0 0  0 0 0 0 0  0 0 0 0 0  0 0 0 .8 0"></feColorMatrix> <feOffset dx="0" dy="1"></feOffset> <feGaussianBlur stdDeviation="1"></feGaussianBlur> <feComposite in="SourceGraphic"></feComposite></filter><filter id="dropshadow-banner" x="-10%" y="-10%" width="120%" height="130%"><feColorMatrix type="matrix" values="0 0 0 0 0  0 0 0 0 0  0 0 0 0 0  0 0 0 .4 0"></feColorMatrix> <feOffset dx="0" dy="1"></feOffset> <feGaussianBlur stdDeviation="0.5"></feGaussianBlur> <feComposite in="SourceGraphic"></feComposite></filter></defs><g fill="none" fill-rule="nonzero" stroke="none" stroke-width="none" stroke-linecap="butt" stroke-linejoin="miter" stroke-miterlimit="10" stroke-dasharray="" stroke-dashoffset="0" font-family="none" font-weight="none" font-size="none" text-anchor="none" style="mix-blend-mode: normal"><path d="M7,43c-1.10457,0 -2,-0.89543 -2,-2v-34c0,-1.10457 0.89543,-2 2,-2h34c1.10457,0 2,0.89543 2,2v26l-10,10z" id="base 1 6 2" fill="#8d6e63" stroke-width="1"></path><path d="M37.64305,22.42601c-1.20342,-0.55996 -2.50758,-0.91613 -3.8582,-1.03428l1.87411,1.87411c0.12045,-0.03132 0.2467,-0.04799 0.3767,-0.04799v-0.00001c0.41259,0 0.78736,0.16791 1.05845,0.439l5.90589,5.90589v3.43727l-10,10h-7.47379c-0.57675,-0.40942 -1.1196,-0.86729 -1.62148,-1.36917l-8.83883,-8.83883c-0.97708,-0.97708 -1.79884,-2.12091 -2.41302,-3.39852l-0.0906,-0.19327c-0.11173,-0.25064 -0.00302,-0.54357 0.25065,-0.65833c0.19628,-0.08646 0.41608,-0.04092 0.55864,0.10164l5.80882,5.80882c1.33024,0.60673 2.78021,0.96558 4.27631,1.03055l-2.10275,-2.10275c-0.16964,0.06642 -0.35441,0.10264 -0.54775,0.10194c-0.4141,0 -0.78887,-0.16791 -1.05996,-0.439l-8.83883,-8.83883c-0.2706,-0.2706 -0.43789,-0.644 -0.43789,-1.05584c0,-0.70967 0.50734,-1.27741 1.17473,-1.4284c1.09318,-5.92195 6.24808,-10.21015 12.30593,-10.21015c3.37518,0 6.56221,1.37434 8.87813,3.69026l8.83883,8.83883c0.4845,0.4845 0.93087,1.01021 1.33287,1.57317l0,2.17085z" fill="url(#color-1)" stroke-width="1"></path><path d="M13.46521,23.15142c0,-0.57679 -0.34124,-1.06903 -0.82442,-1.31666c1.03279,-5.41461 5.75586,-9.32533 11.30938,-9.32533c4.44826,0 8.54621,2.59708 10.43664,6.61954c0.11777,0.24763 0.41372,0.35332 0.66437,0.23857c0.25065,-0.11777 0.35634,-0.41372 0.24159,-0.66135c-2.05351,-4.37276 -6.50478,-7.19633 -11.3426,-7.19633c-6.05784,0 -11.21275,4.2882 -12.30594,10.21015c-0.66739,0.15099 -1.17473,0.71873 -1.17473,1.42839c0,0.82442 0.67041,1.49483 1.49785,1.49483c0.82744,0.00302 1.49785,-0.67041 1.49785,-1.49181zM11.97038,23.6497c-0.27481,0 -0.49828,-0.22347 -0.49828,-0.49828c0,-0.27481 0.22347,-0.49828 0.49828,-0.49828c0.27481,0 0.49828,0.22045 0.49828,0.49828c0,0.27481 -0.22347,0.49828 -0.49828,0.49828zM36.03565,23.21786c-0.82442,0 -1.49785,0.67041 -1.49785,1.49483c0,0.54961 0.31105,1.00863 0.75497,1.26834c-0.95428,5.44179 -5.77699,9.51256 -11.3426,9.51256c-4.40598,0 -8.48581,-2.56084 -10.39436,-6.52894l-0.08154,-0.17213c-0.11475,-0.25367 -0.40768,-0.36238 -0.66135,-0.25065c-0.25367,0.11475 -0.36238,0.40768 -0.25065,0.65833l0.0906,0.19327c2.07162,4.30934 6.50478,7.09667 11.29428,7.09667c6.04274,0 11.28522,-4.4241 12.32405,-10.33095c0.70665,-0.11777 1.25928,-0.70665 1.25928,-1.44651c0.00302,-0.82442 -0.67041,-1.49483 -1.49483,-1.49483zM36.03565,25.21096c-0.27481,0 -0.49828,-0.22045 -0.49828,-0.49828c0,-0.27783 0.22347,-0.49828 0.49828,-0.49828c0.27481,0 0.5013,0.22347 0.5013,0.49828c0,0.27481 -0.22649,0.49828 -0.5013,0.49828zM27.27805,22.37833c1.02977,0 1.86929,-0.8365 1.86929,-1.86627c0,-1.02977 -0.83952,-1.86627 -1.86929,-1.86627c-1.03279,0 -1.86929,0.8365 -1.86929,1.86627c0,1.02977 0.8365,1.86627 1.86929,1.86627zM27.27805,19.64234c0.48016,0 0.86972,0.38956 0.86972,0.86972c0,0.48016 -0.38956,0.86972 -0.86972,0.86972c-0.48016,0 -0.87274,-0.38956 -0.87274,-0.86972c0,-0.48016 0.38956,-0.86972 0.87274,-0.86972zM18.75299,30.77657c0.09362,0.07852 0.20837,0.12079 0.32615,0.12079c0.14193,0 0.28085,-0.0604 0.3805,-0.17515l5.81323,-6.79167c0.59189,0.34728 1.27136,0.56169 2.00821,0.56169c2.19544,0 3.98622,-1.78474 3.98622,-3.97716c0,-2.19242 -1.7938,-3.98018 -3.98924,-3.98018c-2.19846,0 -3.98622,1.78474 -3.98622,3.97716c0,1.09923 0.44996,2.09578 1.17775,2.81753l-3.03194,3.5423l-1.72132,-1.46463c-0.20837,-0.17515 -0.52546,-0.15401 -0.70363,0.05738c-0.17817,0.20837 -0.15401,0.52546 0.05738,0.70363l1.7183,1.46463l-0.912,1.06601l-1.14453,-0.97542c-0.20837,-0.17515 -0.52546,-0.15401 -0.70363,0.05738c-0.17817,0.20837 -0.15401,0.52546 0.05738,0.70363l1.14453,0.97542l-0.52848,0.61907c-0.18421,0.20535 -0.16005,0.51942 0.05134,0.69759zM24.28839,20.51206c0,-1.6428 1.34082,-2.9806 2.98664,-2.9806c1.64582,0 2.98664,1.3378 2.98664,2.9806c0,1.6428 -1.34082,2.9806 -2.98664,2.9806c-1.64582,0 -2.98664,-1.3378 -2.98664,-2.9806z" fill="none" stroke-width="0"></path><path d="M13.46521,23.15142c0,0.8214 -0.67041,1.49483 -1.49785,1.49181c-0.82744,0 -1.49785,-0.67041 -1.49785,-1.49483c0,-0.70967 0.50734,-1.2774 1.17473,-1.42839c1.09319,-5.92195 6.24809,-10.21015 12.30594,-10.21015c4.83782,0 9.28909,2.82357 11.3426,7.19633c0.11475,0.24763 0.00906,0.54358 -0.24159,0.66135c-0.25065,0.11475 -0.54659,0.00906 -0.66437,-0.23857c-1.89043,-4.02246 -5.98839,-6.61954 -10.43664,-6.61954c-5.55353,0 -10.27659,3.91072 -11.30938,9.32533c0.48318,0.24763 0.82442,0.73987 0.82442,1.31666zM11.97038,23.6497c0.27481,0 0.49828,-0.22347 0.49828,-0.49828c0,-0.27783 -0.22347,-0.49828 -0.49828,-0.49828c-0.27481,0 -0.49828,0.22347 -0.49828,0.49828c0,0.27481 0.22347,0.49828 0.49828,0.49828zM36.03565,23.21786c0.82442,0 1.49785,0.67041 1.49483,1.49483c0,0.73987 -0.55263,1.32874 -1.25928,1.44651c-1.03883,5.90685 -6.28131,10.33095 -12.32405,10.33095c-4.7895,0 -9.22266,-2.78733 -11.29428,-7.09667l-0.0906,-0.19327c-0.11173,-0.25065 -0.00302,-0.54358 0.25065,-0.65833c0.25367,-0.11173 0.54659,-0.00302 0.66135,0.25065l0.08154,0.17213c1.90855,3.9681 5.98839,6.52894 10.39436,6.52894c5.5656,0 10.38832,-4.07077 11.3426,-9.51256c-0.44392,-0.25971 -0.75497,-0.71873 -0.75497,-1.26834c0,-0.82442 0.67343,-1.49483 1.49785,-1.49483zM36.03565,25.21096c0.27481,0 0.5013,-0.22347 0.5013,-0.49828c0,-0.27481 -0.22649,-0.49828 -0.5013,-0.49828c-0.27481,0 -0.49828,0.22045 -0.49828,0.49828c0,0.27783 0.22347,0.49828 0.49828,0.49828zM27.27805,22.37833c-1.03279,0 -1.86929,-0.8365 -1.86929,-1.86627c0,-1.02977 0.8365,-1.86627 1.86929,-1.86627c1.02977,0 1.86929,0.8365 1.86929,1.86627c0,1.02977 -0.83952,1.86627 -1.86929,1.86627zM27.27805,19.64234c-0.48318,0 -0.87274,0.38956 -0.87274,0.86972c0,0.48016 0.39258,0.86972 0.87274,0.86972c0.48016,0 0.86972,-0.38956 0.86972,-0.86972c0,-0.48016 -0.38956,-0.86972 -0.86972,-0.86972zM18.75299,30.77657c-0.21139,-0.17817 -0.23555,-0.49224 -0.05134,-0.69759l0.52848,-0.61907l-1.14453,-0.97542c-0.21139,-0.17817 -0.23555,-0.49526 -0.05738,-0.70363c0.17817,-0.21139 0.49526,-0.23253 0.70363,-0.05738l1.14453,0.97542l0.912,-1.06601l-1.7183,-1.46463c-0.21139,-0.17817 -0.23555,-0.49526 -0.05738,-0.70363c0.17817,-0.21139 0.49526,-0.23253 0.70363,-0.05738l1.72132,1.46463l3.03194,-3.5423c-0.72779,-0.72175 -1.17775,-1.7183 -1.17775,-2.81753c0,-2.19242 1.78776,-3.97716 3.98622,-3.97716c2.19544,0 3.98924,1.78776 3.98924,3.98018c0,2.19242 -1.79078,3.97716 -3.98622,3.97716c-0.73685,0 -1.41631,-0.21441 -2.00821,-0.56169l-5.81323,6.79167c-0.09966,0.11475 -0.23857,0.17515 -0.3805,0.17515c-0.11777,0 -0.23253,-0.04228 -0.32615,-0.12079zM24.28839,20.51206c0,1.6428 1.34082,2.9806 2.98664,2.9806c1.64582,0 2.98664,-1.3378 2.98664,-2.9806c0,-1.6428 -1.34082,-2.9806 -2.98664,-2.9806c-1.64582,0 -2.98664,1.3378 -2.98664,2.9806z" fill="#ffffff" stroke-width="0"></path><path d="M2,24c0,-12.15026 9.84974,-22 22,-22c12.15026,0 22,9.84974 22,22c0,12.15026 -9.84974,22 -22,22c-12.15026,0 -22,-9.84974 -22,-22z" id="base 1 1 1" fill="none" stroke-width="1"></path><g fill="#000000" stroke-width="1" font-family="Roboto, sans-serif" font-weight="400" font-size="14" text-anchor="start"></g><rect x="2" y="2" width="44" height="22" fill="none" stroke-width="1"></rect><path d="M2,24v-22h44v22z" fill="none" stroke-width="1"></path><path d="M2,24v-22h44v22z" fill="none" stroke-width="1"></path><path d="M2,24v-22h44v22z" fill="none" stroke-width="1"></path><path d="M2,24v-22h44v22z" fill="none" stroke-width="1"></path><path d="M43,33l-10,10v-8c0,-1 1,-2 2,-2z" fill="#ab8c81" stroke-width="1"></path></g></svg>